<?xml version="1.0"?>
<svg xmlns="http://www.w3.org/2000/svg" xmlns:xlink="http://www.w3.org/1999/xlink" xmlns:svgjs="http://svgjs.com/svgjs" version="1.1" width="512" height="512" x="0" y="0" viewBox="0 0 16 16" style="enable-background:new 0 0 512 512" xml:space="preserve"><g transform="matrix(0.8999999999999999,0,0,0.9,0.8000000000000007,0.7499999999999964)"><link type="text/css" rel="stylesheet" id="dark-mode-custom-link"/><link type="text/css" rel="stylesheet" id="dark-mode-general-link"/><style lang="en" type="text/css" id="dark-mode-custom-style"/><style lang="en" type="text/css" id="dark-mode-native-style"/>
<path xmlns="http://www.w3.org/2000/svg" fill="#444444" d="M1 0l5 6 4.9-6z" data-original="#444444" style=""/>
<path xmlns="http://www.w3.org/2000/svg" fill="#444444" d="M5.9 9l-4.9 6h10l-5.1-6zM3.1 14l2.8-3.4 3 3.4h-5.8z" data-original="#444444" style=""/>
<path xmlns="http://www.w3.org/2000/svg" fill="#444444" d="M10 7h1v1h-1v-1z" data-original="#444444" style=""/>
<path xmlns="http://www.w3.org/2000/svg" fill="#444444" d="M12 7h1v1h-1v-1z" data-original="#444444" style=""/>
<path xmlns="http://www.w3.org/2000/svg" fill="#444444" d="M8 7h1v1h-1v-1z" data-original="#444444" style=""/>
<path xmlns="http://www.w3.org/2000/svg" fill="#444444" d="M6 7h1v1h-1v-1z" data-original="#444444" style=""/>
<path xmlns="http://www.w3.org/2000/svg" fill="#444444" d="M4 7h1v1h-1v-1z" data-original="#444444" style=""/>
<path xmlns="http://www.w3.org/2000/svg" fill="#444444" d="M2 7h1v1h-1v-1z" data-original="#444444" style=""/>
<path xmlns="http://www.w3.org/2000/svg" fill="#444444" d="M0 7h1v1h-1v-1z" data-original="#444444" style=""/>
<path xmlns="http://www.w3.org/2000/svg" fill="#444444" d="M15 7.5v0c0 1.3-0.7 2.6-1.9 3.6l-1.1-1.1v3h3l-1.2-1.2c1.4-1.2 2.2-2.7 2.2-4.3 0 0 0 0 0 0 0-1.9-1-3.6-2.9-4.9l-0.6 0.8c1.6 1.1 2.5 2.5 2.5 4.1z" data-original="#444444" style=""/>
</g></svg>
