<svg id="Capa_1" enable-background="new 0 0 512 512" height="512" viewBox="0 0 512 512" width="512" xmlns="http://www.w3.org/2000/svg"><g><path d="m21.054 154.525c31.539-72.884 96.447-130.095 179.928-148.481 138.032-30.401 274.573 56.852 304.973 194.884 3.996 18.142 5.959 36.258 6.042 54.111.207 44.638-193.22 95.739-237.858 95.739 0 0-273.694-148.628-253.085-196.253z" fill="#232e7a"/><path d="m511.919 249.478c.054 2.158.081 4.324.081 6.495 0 16.515-1.564 32.665-4.552 48.309-22.59 118.273-126.566 177.305-251.421 177.305-141.37 0-155.055-263.195-145.984-261.611 108.634 18.975 130.483 108.469 199.979 99.989 64.126-7.825 72.777-87.349 139.985-89.99 22.683-.891 43.826 7.299 61.912 19.503z" fill="#3342ae"/><path d="m40.812 394.681c-16.052-24.897-28.021-53.025-34.767-83.651-12.017-54.562-5.654-108.891 14.959-156.526 69.816-87.504 191.783-121.71 299.909-75.901 25.722 10.898 48.736 25.508 68.682 42.941-10.153-.846-20.291-1.076-30.363-.71-181.274 6.591-178.702 278.234 2.669 281.091 1.369.022 2.74.032 4.114.032 21.829 0 42.111-12.36 53.207-20.445 17.87-13.02-23.73 70.803-100.995 87.82-107.434 23.663-221.109 12.687-277.415-74.651z" fill="#3493f8"/><path d="m296.827 87.965c18.942 0 37.299 2.124 54.761 6.105 13.667 8.078 26.36 17.294 38.007 27.474-10.153-.847-20.291-1.077-30.362-.71-181.274 6.591-178.702 278.234 2.669 281.092 1.369.022 2.74.032 4.114.032 21.829 0 42.111-12.36 53.207-20.445 10.492-7.644.484 18.092-25.204 44.092-29.078 12.867-62.135 20.14-97.193 20.14-116.333 0-210.639-80.092-210.639-178.89s94.307-178.89 210.64-178.89z" fill="#76b6fa"/><path d="m349.576 59.994c-4.43-3.771.32-19.739 9.999-29.997 11.831-12.539 35.243-21.013 49.995-9.999 10.261 7.662 15.244 23.941 9.999 29.997-5.57 6.43-17.972-4.094-39.996 0-18.064 3.358-25.938 13.453-29.997 9.999z" fill="#1380e2"/><path d="m350 45.392c1.985-5.217 5.299-10.863 9.575-15.395 11.832-12.539 35.243-21.013 49.995-9.999 4.812 3.593 8.463 9.08 10.443 14.52-.139.199-.287.39-.444.572-5.57 6.43-17.972-4.094-39.996 0-17.456 3.245-25.396 12.78-29.573 10.302z" fill="#3493f8"/><path d="m392.928 446.621c0 16.805-12.46 27.615-27.572 34.967-17.819 8.669-38.39 15.595-58.594 20.045-49.226 10.842-93.94 11.045-138.043-5.002-52.15-18.975-97.4-54.629-127.907-101.949 33.147-9.581 64.025-12.102 70.986-12.671 125.494-10.245 167.232 62.604 243.542 38.023.158-.051.315-.102.471-.153 18.297-5.979 37.117 7.49 37.117 26.74z" fill="#1380e2"/><path d="m507.466 304.286c-18.748 97.316-93.449 178.999-196.382 201.669-48.612 10.706-97.039 6.823-140.712-8.73-22.3-7.941-37.076-29.207-37.076-52.879 0-36.823 39.139-28.982 74.726-19.519 61.076 16.242 93.431 12.564 147.319-4.793 70.413-22.681 64.804-94.347 139.673-113.257 4.153-1.05 8.308-1.874 12.452-2.491z" fill="#3493f8"/><path d="m416.598 137.573c3.653-4.291 19.375.615 29.997 9.999 18.317 16.183 25.934 49.63 12.411 61.406-8.536 7.433-25.973 6.646-32.409-1.412-6.788-8.499 3.949-18.751 0-39.996-3.358-18.064-13.454-25.938-9.999-29.997zm-6.587 102.402c0 8.836 7.163 15.998 15.998 15.998 8.836 0 15.998-7.163 15.998-15.998 0-8.836-7.163-15.998-15.998-15.998-8.835-.001-15.998 7.162-15.998 15.998z" fill="#76b6fa"/><path d="m442.007 239.975c0 8.311-6.337 15.141-14.442 15.923-2.697-3.091-4.33-7.133-4.33-11.556 0-8.022 5.372-14.79 12.714-16.903 3.692 2.931 6.058 7.457 6.058 12.536zm4.588-92.403c-4.717-4.168-10.441-7.452-15.666-9.44 2.496 5.363 8.115 13.574 10.54 26.616 4.341 23.354-7.462 34.624 0 43.967 1.695 2.122 4.083 3.785 6.865 4.975 4.051-.694 7.849-2.253 10.672-4.712 13.522-11.776 5.906-45.223-12.411-61.406z" fill="#a7d0fc"/><path d="m411.117 165.412c0 30.373-24.622 54.994-54.994 54.994-17.819 0-33.658-8.475-43.708-21.613-3.579 1.051-7.367 1.615-11.286 1.615-9.796 0-18.769-3.522-25.722-9.368-7.001 11.606-19.73 19.367-34.271 19.367 0 8.264-4.011 15.591-10.191 20.142 4.981 4.57 8.104 11.132 8.104 18.424 0 13.806-11.192 24.997-24.997 24.997-13.806 0-24.997-11.192-24.997-24.997 0-8.264 4.01-15.591 10.191-20.142-4.981-4.57-8.103-11.132-8.103-18.424 0-9.873 5.724-18.408 14.034-22.471-2.584-5.292-4.035-11.239-4.035-17.525 0-22.089 17.907-39.996 39.996-39.996 9.796 0 18.768 3.522 25.722 9.368 7.001-11.606 19.73-19.367 34.272-19.367 6.484 0 12.607 1.544 18.023 4.282 9.766-8.873 22.737-14.281 36.971-14.281 30.369.001 54.991 24.623 54.991 54.995z" fill="#a7d0fc"/><path d="m375.091 129.386c10.323 0 19.981 2.844 28.234 7.791 4.952 8.261 7.797 17.93 7.791 28.264-.016 29.324-23.51 53.789-52.812 54.922-18.704.723-35.432-7.898-45.89-21.571-3.579 1.051-7.367 1.615-11.286 1.615-9.796 0-18.769-3.522-25.722-9.368-7.001 11.606-19.73 19.367-34.271 19.367 0 8.264-4.011 15.591-10.191 20.142 5.33 4.89 8.532 12.062 8.057 19.969-.738 12.268-10.573 22.348-22.821 23.364-2.617.217-5.156.03-7.566-.505-.388-1.75-.593-3.569-.593-5.436 0-2.892.491-5.67 1.395-8.254 2.726-7.796 3.471-16.17 1.451-24.178-.495-1.963-.758-4.018-.758-6.134 0-4.936 1.431-9.538 3.901-13.414 4.47-7.015 6.858-15.171 6.218-23.465-.154-1.997-.161-4.036-.011-6.104 1.436-19.772 17.546-35.698 37.331-36.929 3.775-.235 7.446.055 10.948.802 10.442 2.23 21.402.809 30.461-4.843 6.134-3.827 13.379-6.038 21.141-6.038 1.751 0 3.475.113 5.166.331 8.301 1.071 16.803-.103 24.206-4.009 7.651-4.034 16.369-6.319 25.621-6.319z" fill="#c8e2fd"/></g></svg>