<svg id="Capa_1" enable-background="new 0 0 510 510" height="512" viewBox="0 0 510 510" width="512" xmlns="http://www.w3.org/2000/svg" xmlns:xlink="http://www.w3.org/1999/xlink"><linearGradient id="lg1"><stop offset="0" stop-color="#b5dbff"/><stop offset="1" stop-color="#48b2e3"/></linearGradient><linearGradient id="SVGID_1_" gradientUnits="userSpaceOnUse" x1="379.749" x2="275.166" xlink:href="#lg1" y1="381.427" y2="203.952"/><linearGradient id="SVGID_2_" gradientUnits="userSpaceOnUse" x1="312.762" x2="257.325" y1="230.952" y2="162.843"><stop offset="0" stop-color="#b5dbff" stop-opacity="0"/><stop offset=".1734" stop-color="#8fc5e9" stop-opacity=".173"/><stop offset=".4541" stop-color="#56a4c8" stop-opacity=".454"/><stop offset=".6955" stop-color="#2d8db1" stop-opacity=".696"/><stop offset=".8853" stop-color="#147ea2" stop-opacity=".885"/><stop offset="1" stop-color="#0b799d"/></linearGradient><linearGradient id="lg2"><stop offset="0" stop-color="#edf5ff"/><stop offset="1" stop-color="#d5e8fe"/></linearGradient><linearGradient id="SVGID_3_" gradientUnits="userSpaceOnUse" x1="127.93" x2="355.301" xlink:href="#lg2" y1="205.336" y2="360.361"/><linearGradient id="SVGID_4_" gradientUnits="userSpaceOnUse" x1="267.313" x2="-79.744" y1="267.016" y2="358.532"><stop offset="0" stop-color="#b5dbff" stop-opacity="0"/><stop offset=".2428" stop-color="#93cef6" stop-opacity=".243"/><stop offset=".5763" stop-color="#6abfec" stop-opacity=".576"/><stop offset=".8403" stop-color="#51b5e5" stop-opacity=".84"/><stop offset="1" stop-color="#48b2e3"/></linearGradient><linearGradient id="SVGID_5_" gradientUnits="userSpaceOnUse" x1="295.182" x2="279.546" y1="253.57" y2="326.538"><stop offset="0" stop-color="#48b2e3"/><stop offset="1" stop-color="#0095ff"/></linearGradient><linearGradient id="SVGID_6_" gradientUnits="userSpaceOnUse" x1="214.031" x2="282.914" xlink:href="#lg1" y1="286.86" y2="498.101"/><linearGradient id="lg3"><stop offset="0" stop-color="#48b2e3" stop-opacity="0"/><stop offset=".4112" stop-color="#2995bf" stop-opacity=".411"/><stop offset=".7781" stop-color="#1381a6" stop-opacity=".778"/><stop offset="1" stop-color="#0b799d"/></linearGradient><linearGradient id="SVGID_8_" gradientUnits="userSpaceOnUse" x1="329.376" x2="56.236" xlink:href="#lg3" y1="386.054" y2="98.131"/><linearGradient id="SVGID_9_" gradientUnits="userSpaceOnUse" x1="419.481" x2="278.687" y1="305.164" y2="221.392"><stop offset="0" stop-color="#0095ff" stop-opacity="0"/><stop offset="1" stop-color="#03232e"/></linearGradient><linearGradient id="SVGID_10_" gradientUnits="userSpaceOnUse" x1="255" x2="255" xlink:href="#lg3" y1="434.936" y2="475.069"/><linearGradient id="SVGID_11_" gradientUnits="userSpaceOnUse" x1="428.433" x2="449.657" xlink:href="#lg2" y1="112.166" y2="133.391"/><linearGradient id="SVGID_12_" gradientUnits="userSpaceOnUse" x1="381.899" x2="395.769" xlink:href="#lg2" y1="140.253" y2="154.124"/><g><path d="m423.708 380.768c-72.396 0-131.085-60.951-131.085-136.137 0-59.875 37.221-110.72 88.943-128.946 3.784-1.333 2.973-6.888-1.036-7.047-3.854-.153-7.739-.185-11.651-.094-98.936 2.313-177.246 82.585-177.233 181.548.014 100.269 81.302 181.549 181.574 181.549 100.28 0 115.907-90.873 50.488-90.873z" fill="url(#SVGID_1_)"/><path d="m423.708 380.768c-72.396 0-131.085-60.951-131.085-136.137 0-59.875 37.221-110.72 88.943-128.946.791-.279 1.37-.748 1.772-1.308-78.283 20.346-135.386 91.211-135.375 175.715.012 90.207 65.811 165.032 152.03 179.143 75.765-14.369 82.792-88.467 23.715-88.467z" fill="url(#SVGID_2_)"/><path d="m389.816 63.161c-30.57-18.479-66.414-29.112-104.742-29.108-96.524.009-176.893 66.835-197.556 156.923-5.544 24.169-21.122 44.837-42.505 57.393-27.886 16.373-45.013 46.29-45.013 78.627v111.907s295.73.406 300.969 0c-57.761-26.998-97.757-85.663-97.624-153.663.183-93.472 75.694-168.827 169.167-168.826.673 0 1.345.004 2.016.012 29.163.338 40.247-38.178 15.288-53.265z" fill="url(#SVGID_3_)"/><path d="m323.893 78.728c-118.581 0-214.711 96.129-214.711 214.71 0 56.205 21.606 107.356 56.952 145.628 68.384.038 132.422.024 134.835-.163-57.761-26.998-97.757-85.663-97.624-153.663.183-93.472 75.694-168.827 169.167-168.826.673 0 1.345.004 2.016.012 15.351.178 25.682-10.412 28.394-22.681-24.46-9.69-51.122-15.017-79.029-15.017z" fill="url(#SVGID_4_)"/><path d="m496.803 321.374c-26.716-7.276-89.001-29.554-140.057-88.208-6.392-7.344-16.69-7.897-23.607-1.185-32.595 31.629-119.36 110.882-303.427 115.475-9.354.233-16.81 8.899-16.81 19.447v88.162c0 10.704 7.696 19.381 17.19 19.381h462.718c9.494 0 17.19-8.677 17.19-19.381v-114.84c0-8.97-5.463-16.744-13.197-18.851z" fill="url(#SVGID_5_)"/><path d="m0 342.904s86.288-12.731 153.255-80.972c6.391-6.513 16.688-7.003 23.603-1.051 33.572 28.896 138.308 102.613 333.142 102.613v95.263c0 9.494-7.696 17.19-17.19 17.19h-475.62c-9.494 0-17.19-7.696-17.19-17.19z" fill="url(#SVGID_6_)"/><path d="m0 342.904s86.288-12.731 153.255-80.972c6.391-6.513 16.688-7.003 23.603-1.051 33.572 28.896 138.308 102.613 333.142 102.613v95.263c0 9.494-7.696 17.19-17.19 17.19h-475.62c-9.494 0-17.19-7.696-17.19-17.19z" fill="url(#SVGID_6_)"/><path d="m510 458.757v-95.263c-194.834 0-299.57-73.717-333.141-102.612-3.267-2.812-7.289-4.169-11.297-4.149l-.061.1s.704 30.975 40.83 61.949c40.126 30.975-35.198 26.751-59.133 9.856-23.897-16.868-99.712 38.542 103.215 147.31h242.397c9.494-.001 17.19-7.697 17.19-17.191z" fill="url(#SVGID_8_)"/><path d="m496.803 321.374c-26.716-7.276-89.001-29.554-140.057-88.208-3.839-4.41-9.085-6.352-14.164-5.761-4.286 6.167-19.176 32.277 12.637 60.402 36.43 32.207 101.372 44.878 79.724 47.518-21.647 2.64-1.946 28.169 75.056 28.169v-23.269c.001-8.97-5.462-16.744-13.196-18.851z" fill="url(#SVGID_9_)"/><path d="m0 417.337v41.42c0 9.494 7.696 17.19 17.19 17.19h475.62c9.494 0 17.19-7.696 17.19-17.19v-41.42z" fill="url(#SVGID_10_)"/><circle cx="438.288" cy="122.022" fill="url(#SVGID_11_)" r="24.287"/><circle cx="388.339" cy="146.694" fill="url(#SVGID_12_)" r="15.872"/></g></svg>