<?xml version="1.0" encoding="iso-8859-1"?>
<!-- Generator: Adobe Illustrator 19.0.0, SVG Export Plug-In . SVG Version: 6.00 Build 0)  -->
<svg version="1.1" id="Capa_1" xmlns="http://www.w3.org/2000/svg" xmlns:xlink="http://www.w3.org/1999/xlink" x="0px" y="0px"
	 viewBox="0 0 512 512" style="enable-background:new 0 0 512 512;" xml:space="preserve">
<path style="fill:#CCF2FE;" d="M490.667,138.667c-12.8,0-25.6-2.133-32,10.667C441.6,179.2,401.067,189.867,371.2,172.8
	c-10.667-6.4-17.067-12.8-23.467-23.467c-8.533-14.933-32-14.933-40.533,0c-17.067,29.867-57.6,40.533-87.467,23.467
	c-10.667-6.4-17.067-12.8-23.467-23.467c-6.4-14.933-27.733-12.8-36.267,0c-17.067,29.867-57.6,40.533-87.467,23.467
	c-17.067-8.533-23.467-32-40.533-34.133C17.067,136.533,0,142.933,0,160v234.667C0,407.467,8.533,416,21.333,416h469.333
	c12.8,0,21.333-8.533,21.333-21.333V160C512,147.2,503.467,138.667,490.667,138.667z"/>
<linearGradient id="SVGID_1_" gradientUnits="userSpaceOnUse" x1="-42.9066" y1="608.6072" x2="-26.4926" y2="625.0212" gradientTransform="matrix(21.3333 0 0 -21.3333 996.3334 13553.4453)">
	<stop  offset="0" style="stop-color:#34CDFA"/>
	<stop  offset="1" style="stop-color:#E8D9F1"/>
</linearGradient>
<path style="fill:url(#SVGID_1_);" d="M490.667,288h-12.8c-8.533,0-14.933,4.267-19.2,10.667
	c-17.067,29.867-57.6,40.533-87.467,23.467c-10.667-6.4-17.067-12.8-23.467-23.467c-8.533-14.933-32-14.933-40.533,0
	c-17.067,29.867-57.6,40.533-87.467,23.467C204.8,313.6,196.267,288,177.067,288c6.4,0-4.267,0-6.4,2.133
	c-4.267,2.133-8.533,4.267-10.667,8.533c-17.067,29.867-57.6,40.533-87.467,23.467c-17.067-8.533-23.467-32-42.667-34.133
	C14.933,285.867,0,292.267,0,309.333V480c0,12.8,8.533,21.333,21.333,21.333h469.333c12.8,0,21.333-8.533,21.333-21.333V309.333
	C512,296.533,503.467,288,490.667,288z"/>
<g>
	<circle style="fill:#67D9FB;" cx="256" cy="74.667" r="21.333"/>
	<circle style="fill:#67D9FB;" cx="405.333" cy="117.333" r="21.333"/>
	<circle style="fill:#67D9FB;" cx="384" cy="32" r="21.333"/>
</g>
<g>
</g>
<g>
</g>
<g>
</g>
<g>
</g>
<g>
</g>
<g>
</g>
<g>
</g>
<g>
</g>
<g>
</g>
<g>
</g>
<g>
</g>
<g>
</g>
<g>
</g>
<g>
</g>
<g>
</g>
</svg>
