<svg xmlns="http://www.w3.org/2000/svg" xmlns:xlink="http://www.w3.org/1999/xlink" id="Layer_1" data-name="Layer 1" viewBox="0 0 300 196.5"><defs><linearGradient id="linear-gradient" x1="184.39" x2="184.39" y1="154.54" y2="40.61" gradientTransform="translate(235.07 -105.93) rotate(76.78)" gradientUnits="userSpaceOnUse"><stop offset="0" stop-color="#fd4f97"/><stop offset="1" stop-color="#ffc680"/></linearGradient><linearGradient id="linear-gradient-2" x1="133.36" x2="133.36" y1="175.72" y2="19.43" gradientUnits="userSpaceOnUse"><stop offset="0" stop-color="#00dccc"/><stop offset="1" stop-color="#c7f0b9"/></linearGradient></defs><title>4</title><circle cx="184.39" cy="95.39" r="59.71" transform="translate(49.35 253.07) rotate(-76.78)" style="opacity:.75;fill:url(#linear-gradient)"/><path d="M215.28,94.58c0,2.27-.09,4.51-.28,6.74,0,.49-.07,1-.12,1.46a82.27,82.27,0,0,1-3.52,16.92c-.17.52-.35,1.06-.53,1.58A81.93,81.93,0,0,1,51.44,94.58c0-.87,0-1.73.05-2.58a81.31,81.31,0,0,1,1.75-14.5,80.28,80.28,0,0,1,6.68-19.24A82,82,0,0,1,79.76,32.63a81.53,81.53,0,0,1,53.6-20,81.84,81.84,0,0,1,81.92,81.92Z" style="opacity:.8;fill:url(#linear-gradient-2)"/></svg>