<svg id="Layer_1" data-name="Layer 1" xmlns="http://www.w3.org/2000/svg" viewBox="0 0 165.66 239.81">
    <defs>
        <style>
            .cls-1 {
                fill: #fd0;
            }

            .cls-2 {
                fill: currentColor;
            }
        </style>
    </defs>
    <path class="cls-1"
        d="M155.74,140.78c-8.61,3.69-18.39,7.87-31.06,7.87A59,59,0,0,1,109,146.49l8.77,90a15,15,0,0,0,15,13.8s12.42.64,16.57.64c4.46,0,17.84-.64,17.84-.64a15,15,0,0,0,15-13.8L191.52,137a39.94,39.94,0,0,0-13.2-2.39C170.07,134.65,163.42,137.49,155.74,140.78Z"
        transform="translate(-67.12 -30)" />
    <path class="cls-2"
        d="M232,94.1l-1.32-6.66c-1.18-6-3.87-11.61-10-13.77-2-.69-4.19-1-5.7-2.42s-2-3.65-2.3-5.71c-.64-3.77-1.25-7.55-1.91-11.33-.57-3.24-1-6.88-2.51-9.86-1.94-4-6-6.32-10-7.87a58.7,58.7,0,0,0-6.25-1.94c-10-2.63-20.47-3.6-30.74-4.15a259.22,259.22,0,0,0-37,.61c-9.15.84-18.78,1.84-27.48,5-3.18,1.16-6.45,2.55-8.87,5a9.62,9.62,0,0,0-1.77,11.45,14.84,14.84,0,0,0,6.91,5.8,56.4,56.4,0,0,0,11.22,3.66,184.14,184.14,0,0,0,32.85,3.7,250.8,250.8,0,0,0,36.46-1.19q4.48-.5,9-1.19c3.52-.53,5.77-5.13,4.74-8.33-1.24-3.83-4.57-5.31-8.34-4.73l-1.66.25-.4,0c-1.27.17-2.55.32-3.83.46q-3.94.42-7.92.69c-5.93.42-11.87.61-17.82.62s-11.68-.17-17.51-.55c-2.65-.18-5.31-.4-8-.67-1.2-.12-2.41-.25-3.6-.4l-1.15-.15-.25,0-1.18-.17c-2.42-.37-4.84-.79-7.23-1.3a1,1,0,0,1-.61-.38,1.06,1.06,0,0,1-.25-.68,1.1,1.1,0,0,1,.25-.68,1.12,1.12,0,0,1,.61-.38h0q3.12-.66,6.26-1.15l2.11-.32h0c1.31-.09,2.63-.32,3.94-.48a250.63,250.63,0,0,1,34.22-1.2c5.55.16,11.09.48,16.61,1,1.19.12,2.37.25,3.55.39l1.36.18.92.13q4,.6,8,1.45c3.92.85,9,1.13,10.69,5.42a25.38,25.38,0,0,1,1.11,4.3l.39,1.82,0,.1q1.38,6.47,2.77,12.91a2.58,2.58,0,0,1,0,1,2.27,2.27,0,0,1-.38.89,2.44,2.44,0,0,1-.7.66,2.31,2.31,0,0,1-.91.32h0l-.56.08-.56.08c-1.77.23-3.54.44-5.31.64q-5.24.6-10.49,1-10.44.87-20.91,1.14-5.34.15-10.68.13a370.23,370.23,0,0,1-42.37-2.46c-1.52-.18-3-.37-4.57-.57,1.18.15-.86-.12-1.27-.18l-2.91-.42c-3.24-.49-6.47-1.09-9.72-1.61A16.89,16.89,0,0,0,78,73.76a16.29,16.29,0,0,0-6.75,7c-1.53,3.16-2,6.61-2.67,10s-1.75,7.06-1.35,10.54a16.84,16.84,0,0,0,13.7,15c7.12,1.29,14.28,2.33,21.46,3.22a395.71,395.71,0,0,0,85,1.23c2.31-.21,4.61-.45,6.9-.7a4.86,4.86,0,0,1,5.09,3.18,5,5,0,0,1,.26,2.13l-.72,7q-2.16,21.09-4.33,42.2-2.26,22.16-4.55,44.31l-1.29,12.48c-.41,4.09-.47,8.31-1.25,12.36-1.22,6.36-5.53,10.27-11.81,11.7a82.25,82.25,0,0,1-17.55,2.05c-6.54,0-13.09-.26-19.63-.22-7,0-15.55-.61-20.94-5.81-4.74-4.56-5.4-11.72-6-17.9q-1.29-12.28-2.56-24.56l-4.74-45.52L101.11,134c0-.49-.11-1-.15-1.46-.37-3.52-2.86-7-6.78-6.78-3.35.15-7.17,3-6.77,6.78l2.27,21.83,4.7,45.17q2,19.24,4,38.49c.26,2.46.5,4.93.78,7.39,1.47,13.43,11.73,20.67,24.44,22.71a158.52,158.52,0,0,0,22.55,1.56c9.65.16,19.4.53,28.89-1.22,14.07-2.58,24.63-12,26.13-26.55.44-4.21.86-8.42,1.3-12.63q2.15-20.88,4.28-41.76L211.43,142l2.13-20.85a4.85,4.85,0,0,1,3.9-4.25c4-.78,7.87-2.12,10.73-5.19C232.75,106.86,233.65,100.5,232,94.1ZM80.71,98.59c.06,0-.06.5-.1.75C80.6,99,80.62,98.64,80.71,98.59Zm.39,3s.13.11.23.27c-.16-.15-.25-.25-.24-.27Zm.38.51c.14.24.21.38,0,0Zm.77.63h0s0,0,0,.06l-.07-.06Zm135-.94a10.64,10.64,0,0,1-5.77,2.33,407.39,407.39,0,0,1-73,4.6,493.16,493.16,0,0,1-52-5c-1.69-.24-3.53-.55-4.69-1.8-2.19-2.35-1.12-7.1-.54-9.94.52-2.61,1.52-6.08,4.62-6.45C90.69,85,96.31,87,101.1,87.77q8.64,1.32,17.35,2.11a334.67,334.67,0,0,0,74.66-1.4q6.75-.9,13.44-2.1c4-.72,8.39-2.06,10.8,2.06C219,91.25,219.21,95,219,98.18a5.41,5.41,0,0,1-1.69,3.63Z"
        transform="translate(-67.12 -30)" />
</svg>